<?xml version="1.0" encoding="utf-8"?>
<!-- Generator: Adobe Illustrator 16.0.0, SVG Export Plug-In . SVG Version: 6.00 Build 0)  -->
<!DOCTYPE svg PUBLIC "-//W3C//DTD SVG 1.1//EN" "http://www.w3.org/Graphics/SVG/1.1/DTD/svg11.dtd">
<svg version="1.1" id="Layer_1" xmlns="http://www.w3.org/2000/svg" xmlns:xlink="http://www.w3.org/1999/xlink" x="0px" y="0px"
	 width="244.186px" height="177.907px" viewBox="0 0 244.186 177.907" enable-background="new 0 0 244.186 177.907"
	 xml:space="preserve">
<g>
	<line fill="#D8534F" x1="143.013" y1="68.099" x2="166.904" y2="30.458"/>
	<g>
		<path fill="#D8534F" d="M144.38,68.898c7.964-12.547,15.928-25.094,23.891-37.641c1.099-1.73-1.644-3.317-2.734-1.599
			c-7.964,12.547-15.928,25.094-23.891,37.641C140.547,69.03,143.29,70.617,144.38,68.898L144.38,68.898z"/>
	</g>
</g>
<g>
	<line fill="#D8534F" x1="157.016" y1="76.617" x2="156.971" y2="18.072"/>
	<g>
		<path fill="#D8534F" d="M158.516,76.617c-0.015-19.515-0.03-39.03-0.045-58.545c-0.002-1.935-3.002-1.935-3,0
			c0.015,19.515,0.03,39.03,0.045,58.545C155.518,78.551,158.518,78.551,158.516,76.617L158.516,76.617z"/>
	</g>
</g>
<g>
	<line fill="#D8534F" x1="133.212" y1="35.544" x2="174.249" y2="55.056"/>
	<g>
		<path fill="#D8534F" d="M132.406,36.925c13.679,6.504,27.357,13.008,41.036,19.512c1.852,0.88,3.475-1.876,1.613-2.761
			c-13.679-6.504-27.357-13.008-41.036-19.512C132.167,33.284,130.544,36.04,132.406,36.925L132.406,36.925z"/>
	</g>
</g>
<g>
	<line fill="#D8534F" x1="125.61" y1="64.341" x2="185.788" y2="29.164"/>
	<g>
		<path fill="#D8534F" d="M126.367,65.637c20.06-11.726,40.119-23.452,60.178-35.178c1.669-0.976,0.16-3.569-1.514-2.591
			c-20.06,11.726-40.119,23.452-60.178,35.178C123.184,64.021,124.693,66.615,126.367,65.637L126.367,65.637z"/>
	</g>
</g>
<g>
	<line fill="#D8534F" x1="136.144" y1="47.125" x2="181.083" y2="45.647"/>
	<g>
		<path fill="#D8534F" d="M136.144,48.715c14.979-0.493,29.959-0.985,44.938-1.478c2.046-0.067,2.052-3.248,0-3.181
			c-14.979,0.493-29.959,0.985-44.938,1.478C134.098,45.602,134.092,48.782,136.144,48.715L136.144,48.715z"/>
	</g>
</g>
<ellipse fill="#FFFFFF" stroke="#FFFFFF" stroke-width="2" cx="156.187" cy="46.468" rx="9.141" ry="7.557"/>
<line stroke="#FFFFFF" stroke-width="4" x1="156.623" y1="46.344" x2="229.653" y2="142.323"/>
<line stroke="#BCBEC0" stroke-width="4" x1="156.623" y1="46.344" x2="175.34" y2="70.943"/>
<g>
	<path fill="#FFFFFF" d="M16.99,121.144c0-3.061-0.12-5.46-0.24-7.86h4.62l0.24,4.68h0.18c1.62-2.76,4.319-5.34,9.18-5.34
		c3.899,0,6.899,2.4,8.159,5.82h0.12c0.9-1.68,2.101-2.88,3.3-3.78c1.74-1.319,3.601-2.04,6.36-2.04c3.899,0,9.6,2.521,9.6,12.6
		v17.1h-5.16v-16.439c0-5.64-2.1-8.939-6.3-8.939c-3.06,0-5.34,2.22-6.3,4.74c-0.24,0.779-0.42,1.739-0.42,2.64v17.999h-5.16
		v-17.399c0-4.68-2.039-7.979-6.06-7.979c-3.239,0-5.699,2.64-6.539,5.279c-0.301,0.78-0.42,1.681-0.42,2.58v17.52h-5.16V121.144z"
		/>
	<path fill="#FFFFFF" d="M69.549,107.944c-1.979,0-3.3-1.56-3.3-3.42c0-1.859,1.38-3.359,3.42-3.359s3.36,1.5,3.36,3.359
		c0,1.86-1.32,3.42-3.42,3.42H69.549z M67.03,142.323v-29.039h5.279v29.039H67.03z"/>
	<path fill="#FFFFFF" d="M81.25,102.485c2.64-0.54,6.479-0.9,10.02-0.9c5.58,0,9.24,1.08,11.76,3.359c1.979,1.74,3.18,4.5,3.18,7.68
		c0,5.28-3.42,8.82-7.619,10.26v0.181c3.06,1.079,4.92,3.959,5.939,8.159c1.32,5.64,2.28,9.54,3.06,11.1h-5.399
		c-0.66-1.14-1.56-4.62-2.64-9.659c-1.2-5.58-3.42-7.68-8.16-7.86h-4.92v17.52h-5.22V102.485z M86.469,120.843h5.34
		c5.58,0,9.12-3.06,9.12-7.68c0-5.22-3.78-7.499-9.3-7.499c-2.52,0-4.26,0.239-5.16,0.479V120.843z"/>
	<path fill="#FFFFFF" d="M113.469,101.884h5.279v36.059h17.279v4.38h-22.559V101.884z"/>
	<path fill="#FFFFFF" d="M144.188,107.944c-1.979,0-3.3-1.56-3.3-3.42c0-1.859,1.38-3.359,3.42-3.359s3.36,1.5,3.36,3.359
		c0,1.86-1.32,3.42-3.42,3.42H144.188z M141.668,142.323v-29.039h5.279v29.039H141.668z"/>
	<path fill="#FFFFFF" d="M155.887,142.323v-40.438h5.76l12.899,20.459c2.94,4.74,5.34,8.94,7.2,13.14l0.18-0.06
		c-0.479-5.4-0.6-10.32-0.6-16.56v-16.979h4.92v40.438h-5.28l-12.839-20.52c-2.82-4.499-5.521-9.119-7.5-13.499l-0.18,0.06
		c0.3,5.101,0.359,9.96,0.359,16.68v17.279H155.887z"/>
</g>
<g>
	<line fill="#2E3192" x1="17.165" y1="146.966" x2="234.133" y2="147.191"/>
	<g>
		<path fill="#27AAE1" d="M17.165,148.466c48.263,0.05,96.525,0.1,144.788,0.149c24.061,0.025,48.12,0.05,72.181,0.075
			c1.935,0.002,1.935-2.998,0-3c-48.263-0.05-96.525-0.1-144.788-0.149c-24.06-0.025-48.121-0.05-72.181-0.075
			C15.23,145.464,15.23,148.464,17.165,148.466L17.165,148.466z"/>
	</g>
</g>
<g>
	<path fill="#D9534F" d="M16.924,158.967c0-0.919-0.036-1.639-0.072-2.359h1.387l0.072,1.404h0.054
		c0.486-0.828,1.296-1.603,2.755-1.603c1.17,0,2.07,0.721,2.448,1.747h0.036c0.271-0.504,0.631-0.864,0.99-1.135
		c0.522-0.396,1.081-0.612,1.909-0.612c1.17,0,2.881,0.757,2.881,3.781v5.132h-1.549v-4.934c0-1.692-0.63-2.683-1.891-2.683
		c-0.918,0-1.603,0.666-1.891,1.423c-0.072,0.233-0.126,0.521-0.126,0.792v5.401h-1.549v-5.222c0-1.404-0.611-2.395-1.818-2.395
		c-0.972,0-1.71,0.792-1.962,1.584c-0.091,0.234-0.126,0.505-0.126,0.774v5.258h-1.549V158.967z"/>
	<path fill="#D9534F" d="M32.692,155.005c-0.594,0-0.99-0.468-0.99-1.026c0-0.558,0.414-1.008,1.026-1.008s1.009,0.45,1.009,1.008
		c0,0.559-0.396,1.026-1.026,1.026H32.692z M31.936,165.323v-8.715h1.584v8.715H31.936z"/>
	<path fill="#D9534F" d="M36.202,153.368c0.793-0.162,1.945-0.271,3.007-0.271c1.675,0,2.773,0.324,3.529,1.008
		c0.595,0.522,0.954,1.351,0.954,2.305c0,1.585-1.026,2.647-2.286,3.079v0.055c0.918,0.323,1.477,1.188,1.782,2.448
		c0.396,1.692,0.685,2.863,0.918,3.331h-1.62c-0.198-0.342-0.468-1.387-0.792-2.898c-0.36-1.675-1.026-2.305-2.449-2.359h-1.477
		v5.258h-1.566V153.368z M37.768,158.876h1.603c1.675,0,2.737-0.918,2.737-2.305c0-1.566-1.135-2.25-2.791-2.25
		c-0.756,0-1.278,0.071-1.549,0.144V158.876z"/>
	<path fill="#FFFFFF" d="M45.886,165.323v-12.136h1.729l3.871,6.14c0.883,1.423,1.603,2.684,2.161,3.943l0.054-0.018
		c-0.144-1.621-0.18-3.098-0.18-4.97v-5.096h1.477v12.136h-1.585l-3.854-6.158c-0.846-1.35-1.656-2.736-2.25-4.051l-0.055,0.018
		c0.091,1.531,0.108,2.989,0.108,5.006v5.186H45.886z"/>
	<path fill="#FFFFFF" d="M59.693,161.505l-1.261,3.817h-1.62l4.123-12.136h1.891l4.142,12.136h-1.675l-1.296-3.817H59.693z
		 M63.672,160.282l-1.207-3.493c-0.252-0.793-0.432-1.513-0.612-2.215h-0.054c-0.162,0.702-0.36,1.458-0.594,2.196l-1.188,3.512
		H63.672z"/>
	<path fill="#D8534F" d="M72.543,153.187h1.584v10.821h5.186v1.314h-6.77V153.187z"/>
	<path fill="#D8534F" d="M81.759,155.005c-0.594,0-0.99-0.468-0.99-1.026c0-0.558,0.414-1.008,1.026-1.008s1.009,0.45,1.009,1.008
		c0,0.559-0.396,1.026-1.026,1.026H81.759z M81.003,165.323v-8.715h1.584v8.715H81.003z"/>
	<path fill="#FFFFFF" d="M87.124,154.52v2.088h2.269v1.207h-2.269v4.699c0,1.08,0.307,1.692,1.188,1.692
		c0.433,0,0.685-0.036,0.919-0.108l0.071,1.207c-0.306,0.107-0.792,0.216-1.404,0.216c-0.738,0-1.332-0.252-1.71-0.666
		c-0.433-0.486-0.612-1.261-0.612-2.287v-4.753h-1.351v-1.207h1.351v-1.603L87.124,154.52z"/>
	<path fill="#FFFFFF" d="M91.968,161.236c0.036,2.143,1.386,3.024,2.971,3.024c1.135,0,1.837-0.198,2.413-0.432l0.288,1.116
		c-0.559,0.252-1.531,0.558-2.917,0.558c-2.665,0-4.285-1.782-4.285-4.393c0-2.647,1.566-4.718,4.104-4.718
		c2.845,0,3.583,2.503,3.583,4.105c0,0.324-0.018,0.576-0.054,0.756L91.968,161.236z M96.595,160.101
		c0.019-0.99-0.414-2.574-2.179-2.574c-1.62,0-2.305,1.476-2.431,2.574H96.595z"/>
	<path fill="#FFFFFF" d="M100.103,159.327c0-1.026-0.018-1.908-0.071-2.719h1.386l0.072,1.711h0.054
		c0.396-1.171,1.369-1.909,2.431-1.909c0.162,0,0.288,0.019,0.433,0.055v1.477c-0.18-0.019-0.342-0.036-0.559-0.036
		c-1.116,0-1.908,0.846-2.124,2.017c-0.036,0.233-0.055,0.486-0.055,0.756v4.646h-1.584L100.103,159.327z"/>
	<path fill="#FFFFFF" d="M112.005,163.234c0,0.757,0.036,1.495,0.126,2.089h-1.422l-0.145-1.099h-0.054
		c-0.469,0.685-1.423,1.297-2.665,1.297c-1.765,0-2.665-1.242-2.665-2.503c0-2.106,1.873-3.259,5.24-3.241v-0.18
		c0-0.721-0.198-2.035-1.981-2.017c-0.828,0-1.674,0.234-2.286,0.648l-0.36-1.062c0.721-0.45,1.783-0.757,2.881-0.757
		c2.683,0,3.331,1.819,3.331,3.565V163.234z M110.458,160.875c-1.729-0.036-3.691,0.27-3.691,1.963c0,1.044,0.684,1.512,1.477,1.512
		c1.152,0,1.891-0.72,2.143-1.458c0.054-0.162,0.072-0.342,0.072-0.504V160.875z"/>
	<path fill="#FFFFFF" d="M116.379,154.52v2.088h2.269v1.207h-2.269v4.699c0,1.08,0.307,1.692,1.188,1.692
		c0.433,0,0.685-0.036,0.919-0.108l0.071,1.207c-0.306,0.107-0.792,0.216-1.404,0.216c-0.738,0-1.332-0.252-1.71-0.666
		c-0.433-0.486-0.612-1.261-0.612-2.287v-4.753h-1.351v-1.207h1.351v-1.603L116.379,154.52z"/>
	<path fill="#FFFFFF" d="M127.721,162.946c0,0.9,0.019,1.692,0.072,2.377h-1.404l-0.09-1.423h-0.036
		c-0.396,0.702-1.333,1.621-2.881,1.621c-1.369,0-3.007-0.774-3.007-3.817v-5.096h1.584v4.808c0,1.656,0.522,2.791,1.944,2.791
		c1.062,0,1.801-0.738,2.089-1.459c0.09-0.216,0.145-0.504,0.145-0.81v-5.33h1.584V162.946z"/>
	<path fill="#FFFFFF" d="M130.365,159.327c0-1.026-0.018-1.908-0.071-2.719h1.386l0.072,1.711h0.054
		c0.396-1.171,1.369-1.909,2.431-1.909c0.162,0,0.288,0.019,0.433,0.055v1.477c-0.18-0.019-0.342-0.036-0.559-0.036
		c-1.116,0-1.908,0.846-2.124,2.017c-0.036,0.233-0.055,0.486-0.055,0.756v4.646h-1.584L130.365,159.327z"/>
	<path fill="#FFFFFF" d="M137.028,161.236c0.036,2.143,1.387,3.024,2.971,3.024c1.135,0,1.837-0.198,2.413-0.432l0.288,1.116
		c-0.559,0.252-1.531,0.558-2.917,0.558c-2.665,0-4.285-1.782-4.285-4.393c0-2.647,1.566-4.718,4.104-4.718
		c2.846,0,3.583,2.503,3.583,4.105c0,0.324-0.018,0.576-0.054,0.756L137.028,161.236z M141.655,160.101
		c0.019-0.99-0.414-2.574-2.179-2.574c-1.62,0-2.305,1.476-2.431,2.574H141.655z"/>
	<path fill="#D8534F" d="M149.015,165.323v-12.136h1.729l3.871,6.14c0.883,1.423,1.603,2.684,2.161,3.943l0.054-0.018
		c-0.144-1.621-0.18-3.098-0.18-4.97v-5.096h1.477v12.136h-1.585l-3.854-6.158c-0.846-1.35-1.656-2.736-2.25-4.051l-0.055,0.018
		c0.091,1.531,0.108,2.989,0.108,5.006v5.186H149.015z"/>
	<path fill="#FFFFFF" d="M161.688,161.236c0.036,2.143,1.387,3.024,2.971,3.024c1.135,0,1.837-0.198,2.413-0.432l0.288,1.116
		c-0.559,0.252-1.531,0.558-2.917,0.558c-2.665,0-4.285-1.782-4.285-4.393c0-2.647,1.566-4.718,4.104-4.718
		c2.846,0,3.583,2.503,3.583,4.105c0,0.324-0.018,0.576-0.054,0.756L161.688,161.236z M166.315,160.101
		c0.019-0.99-0.414-2.574-2.179-2.574c-1.62,0-2.305,1.476-2.431,2.574H166.315z"/>
	<path fill="#FFFFFF" d="M171.713,154.52v2.088h2.269v1.207h-2.269v4.699c0,1.08,0.307,1.692,1.188,1.692
		c0.433,0,0.685-0.036,0.919-0.108l0.071,1.207c-0.306,0.107-0.792,0.216-1.404,0.216c-0.738,0-1.332-0.252-1.71-0.666
		c-0.433-0.486-0.612-1.261-0.612-2.287v-4.753h-1.351v-1.207h1.351v-1.603L171.713,154.52z"/>
	<path fill="#FFFFFF" d="M176.463,156.608l1.171,4.411c0.233,0.973,0.468,1.891,0.63,2.791h0.054
		c0.198-0.882,0.486-1.818,0.774-2.772l1.423-4.43h1.332l1.351,4.357c0.324,1.026,0.576,1.963,0.774,2.845h0.054
		c0.145-0.882,0.378-1.8,0.666-2.826l1.242-4.376h1.566l-2.809,8.715h-1.44l-1.332-4.159c-0.307-0.99-0.559-1.854-0.774-2.881
		h-0.036c-0.216,1.044-0.486,1.963-0.792,2.898l-1.404,4.142h-1.44l-2.629-8.715H176.463z"/>
	<path fill="#FFFFFF" d="M192.47,165.521c-2.341,0-4.177-1.729-4.177-4.483c0-2.917,1.926-4.628,4.321-4.628
		c2.502,0,4.195,1.819,4.195,4.466c0,3.241-2.251,4.646-4.321,4.646H192.47z M192.524,164.333c1.513,0,2.647-1.423,2.647-3.403
		c0-1.477-0.738-3.331-2.611-3.331c-1.854,0-2.664,1.729-2.664,3.386c0,1.908,1.08,3.349,2.61,3.349H192.524z"/>
	<path fill="#FFFFFF" d="M198.823,159.327c0-1.026-0.018-1.908-0.071-2.719h1.386l0.072,1.711h0.054
		c0.396-1.171,1.369-1.909,2.431-1.909c0.162,0,0.288,0.019,0.433,0.055v1.477c-0.18-0.019-0.342-0.036-0.559-0.036
		c-1.116,0-1.908,0.846-2.124,2.017c-0.036,0.233-0.055,0.486-0.055,0.756v4.646h-1.584L198.823,159.327z"/>
	<path fill="#FFFFFF" d="M206.345,160.605h0.036c0.217-0.306,0.505-0.702,0.757-0.99l2.574-3.007h1.891l-3.367,3.583l3.836,5.132
		h-1.927l-2.989-4.195l-0.811,0.918v3.277h-1.584v-12.784h1.584V160.605z"/>
</g>
</svg>
